<?xml version="1.0" standalone="no"?>
<!DOCTYPE svg PUBLIC "-//W3C//DTD SVG 20010904//EN"
 "http://www.w3.org/TR/2001/REC-SVG-20010904/DTD/svg10.dtd">
<svg version="1.0" xmlns="http://www.w3.org/2000/svg"
 width="1280.000000pt" height="1280.000000pt" viewBox="0 0 1280.000000 1280.000000"
 preserveAspectRatio="xMidYMid meet">
<g transform="translate(0.000000,1280.000000) scale(0.100000,-0.100000)"
fill="#ffffff" stroke="none">
<path d="M6253 12786 c-246 -47 -475 -187 -691 -423 -292 -318 -586 -948 -799
-1708 -26 -93 -49 -172 -51 -175 -2 -2 -18 4 -35 14 -596 348 -1151 580 -1632
682 -148 32 -403 43 -550 25 -296 -38 -548 -167 -687 -353 -112 -151 -182
-334 -209 -544 -18 -146 -7 -400 25 -550 94 -448 303 -960 612 -1507 46 -81
84 -150 84 -155 0 -4 -80 -29 -178 -56 -440 -123 -792 -255 -1122 -421 -370
-187 -570 -334 -749 -551 -125 -151 -207 -307 -248 -470 -23 -94 -23 -294 0
-388 55 -221 196 -444 403 -634 321 -298 955 -596 1716 -808 98 -27 178 -53
178 -57 0 -5 -24 -50 -54 -100 -306 -520 -545 -1101 -642 -1561 -32 -149 -43
-404 -25 -551 38 -296 167 -548 353 -687 200 -149 435 -218 742 -218 167 0
301 19 505 71 410 104 853 293 1354 576 81 45 150 83 155 83 4 0 25 -64 46
-143 176 -642 414 -1198 677 -1580 111 -161 316 -354 476 -449 171 -102 311
-142 493 -142 239 0 442 81 664 265 223 184 368 384 565 779 162 324 298 694
417 1127 21 79 42 143 46 143 5 0 74 -38 155 -83 593 -335 1137 -550 1586
-627 213 -36 483 -24 677 30 108 30 242 97 338 168 186 139 315 391 353 687
18 147 7 402 -25 551 -95 450 -303 961 -612 1507 -46 81 -84 150 -84 155 0 4
80 29 178 56 440 123 792 255 1122 421 370 187 570 334 749 551 125 151 207
307 248 470 23 94 23 294 0 388 -55 221 -196 444 -403 634 -321 298 -955 596
-1716 808 -98 27 -178 52 -178 56 0 5 38 74 84 155 309 546 517 1057 612 1507
32 149 43 404 25 551 -38 296 -167 548 -353 687 -202 150 -435 218 -750 218
-167 0 -306 -20 -518 -76 -398 -104 -863 -303 -1332 -570 -81 -46 -151 -84
-156 -84 -4 0 -25 64 -46 143 -176 642 -414 1198 -677 1580 -149 216 -406 433
-618 522 -154 64 -353 89 -498 61z m277 -436 c462 -110 907 -647 1249 -1506
54 -137 161 -437 161 -452 0 -4 -21 -20 -48 -36 -394 -245 -968 -652 -1349
-959 -73 -59 -137 -107 -143 -107 -6 0 -70 48 -143 107 -381 307 -955 714
-1349 959 -27 16 -48 32 -48 36 0 3 23 73 51 155 268 776 613 1344 989 1622
153 114 363 198 495 200 28 1 88 -8 135 -19z m-3393 -1515 c426 -53 905 -210
1414 -465 109 -55 120 -63 115 -84 -98 -392 -219 -1097 -276 -1606 -12 -107
-24 -205 -26 -217 -5 -27 2 -26 -244 -53 -509 -57 -1214 -178 -1606 -276 -21
-5 -29 6 -84 115 -324 647 -496 1265 -477 1715 11 254 67 439 182 601 98 139
325 244 600 278 77 10 292 6 402 -8z m7058 -14 c285 -63 439 -169 540 -371
193 -384 138 -999 -155 -1730 -74 -184 -134 -318 -210 -471 -55 -109 -63 -120
-84 -115 -392 98 -1097 219 -1606 276 -246 27 -239 26 -244 53 -2 12 -14 110
-26 217 -57 509 -178 1214 -276 1606 -5 21 6 29 115 84 503 251 971 407 1405
465 144 20 423 13 541 -14z m-5296 -633 c231 -127 539 -318 801 -497 262 -178
625 -446 625 -461 0 -4 -76 -73 -170 -152 -93 -78 -252 -217 -353 -308 -102
-91 -206 -184 -233 -208 l-48 -43 -198 -9 c-227 -12 -561 -35 -741 -52 -67 -6
-125 -8 -129 -4 -13 13 77 592 143 916 52 257 172 741 209 848 6 17 10 16 94
-30z m3117 -44 c41 -139 152 -593 188 -774 67 -328 156 -903 143 -916 -4 -4
-62 -2 -129 4 -180 17 -514 40 -741 52 l-198 9 -48 43 c-27 24 -131 117 -233
208 -101 91 -260 230 -353 308 -94 79 -170 148 -170 152 0 5 48 45 106 89 468
352 878 621 1339 880 30 17 59 29 64 28 5 -2 20 -39 32 -83z m-1458 -1091
c203 -164 486 -404 609 -517 9 -8 -195 -11 -767 -11 -586 0 -776 3 -767 11 49
47 313 274 444 381 215 178 317 262 321 262 2 1 74 -56 160 -126z m619 -592
l82 -6 183 -171 c245 -230 570 -554 815 -814 l201 -214 8 -155 c11 -202 11
-1200 0 -1401 l-8 -156 -192 -204 c-245 -261 -534 -550 -800 -801 l-210 -197
-155 -8 c-202 -11 -1200 -11 -1401 0 l-156 8 -206 194 c-253 238 -593 577
-822 822 l-171 183 -6 87 c-15 203 -21 978 -10 1296 l12 329 96 105 c292 315
690 713 1006 1005 l105 98 238 9 c243 9 1242 3 1391 -9z m-1905 -180 c-171
-164 -654 -648 -836 -839 l-89 -92 7 122 c8 158 42 550 64 743 l17 150 150 17
c245 27 669 63 797 66 l67 2 -177 -169z m2558 138 c129 -11 303 -28 385 -37
l150 -17 17 -150 c22 -193 56 -585 64 -743 l7 -124 -171 179 c-164 172 -648
654 -840 837 l-92 89 122 -7 c68 -4 229 -16 358 -27z m-3480 -101 c0 -18 -4
-71 -9 -118 -13 -114 -39 -490 -51 -728 l-9 -193 -43 -48 c-24 -26 -117 -131
-208 -232 -91 -102 -230 -261 -308 -355 -79 -93 -148 -169 -153 -169 -10 0
-241 309 -395 530 -263 377 -620 964 -598 984 23 22 559 155 879 220 264 53
781 137 858 140 35 1 37 0 37 -31z m4316 7 c533 -79 935 -161 1379 -281 94
-26 174 -50 179 -54 20 -19 -283 -523 -533 -890 -178 -262 -446 -625 -461
-625 -4 0 -73 76 -152 170 -78 93 -217 252 -308 353 -91 102 -184 206 -208
233 l-43 48 -9 193 c-12 238 -38 614 -51 728 -14 136 -13 150 14 150 13 0 100
-11 193 -25z m-6206 -457 c219 -357 639 -947 946 -1328 57 -71 104 -134 104
-140 0 -6 -48 -70 -107 -143 -309 -384 -708 -945 -959 -1349 -16 -27 -32 -48
-35 -48 -16 0 -313 106 -448 159 -629 251 -1089 556 -1330 881 -113 152 -201
370 -201 500 0 130 88 348 201 500 275 372 828 711 1599 981 91 32 170 58 175
58 6 1 30 -32 55 -71z m8081 23 c765 -260 1350 -616 1628 -991 113 -152 201
-370 201 -500 0 -130 -88 -348 -201 -500 -241 -325 -701 -630 -1330 -881 -135
-53 -432 -159 -448 -159 -3 0 -19 21 -35 48 -251 404 -650 965 -959 1349 -59
73 -107 137 -107 143 0 6 48 70 107 143 311 387 693 925 958 1349 17 27 33 48
36 48 3 0 71 -22 150 -49z m-6266 -1491 c0 -572 -3 -776 -11 -767 -113 123
-353 406 -518 610 l-127 157 127 158 c149 184 522 622 529 622 0 0 0 -351 0
-780z m4352 665 c125 -142 288 -336 427 -507 l127 -158 -127 -157 c-156 -193
-410 -492 -518 -610 -8 -9 -11 195 -11 767 0 572 3 776 11 767 6 -7 47 -52 91
-102z m-4874 -945 c148 -175 398 -458 499 -566 l29 -30 9 -200 c12 -228 35
-562 52 -742 6 -67 8 -125 4 -129 -13 -13 -593 77 -916 143 -307 63 -832 195
-854 214 -20 18 282 522 532 890 175 256 452 632 464 628 3 -2 85 -95 181
-208z m5552 118 c312 -416 557 -779 762 -1128 126 -214 166 -291 157 -300 -22
-19 -547 -151 -854 -214 -323 -66 -903 -156 -916 -143 -4 4 -2 62 4 129 17
180 40 514 52 741 l9 198 43 48 c24 27 117 131 208 233 91 101 230 261 310
356 80 94 147 172 150 172 3 0 37 -42 75 -92z m-4495 -1261 c157 -159 365
-365 463 -459 l179 -171 -124 7 c-158 8 -550 42 -743 64 l-150 17 -17 150
c-22 193 -56 585 -64 743 l-7 122 89 -92 c48 -51 217 -223 374 -381z m3636
351 c-8 -158 -42 -550 -64 -743 l-17 -150 -150 -17 c-193 -22 -585 -56 -743
-64 l-124 -7 175 166 c210 200 917 916 917 928 0 5 3 9 6 9 4 0 4 -55 0 -122z
m-5705 -712 c416 -92 932 -176 1379 -226 246 -27 239 -26 244 -53 2 -12 14
-110 26 -217 57 -509 178 -1214 276 -1606 5 -21 -6 -29 -115 -84 -927 -464
-1736 -599 -2201 -365 -137 69 -216 147 -285 285 -193 383 -138 999 155 1730
74 184 134 318 210 471 55 109 63 120 84 115 12 -3 114 -26 227 -50z m7629
-66 c465 -927 599 -1736 365 -2200 -69 -138 -148 -216 -285 -285 -384 -193
-999 -138 -1730 155 -184 74 -318 134 -471 210 -109 55 -120 63 -115 84 98
392 219 1097 276 1606 12 107 24 205 26 217 5 27 -2 26 244 53 465 52 980 137
1390 229 118 27 221 49 227 50 7 0 40 -53 73 -119z m-5770 -209 c114 -13 490
-39 728 -51 l193 -9 48 -43 c27 -24 131 -117 233 -208 101 -91 260 -230 353
-308 94 -79 170 -148 170 -153 0 -10 -309 -241 -530 -395 -377 -263 -964 -620
-984 -598 -22 24 -156 560 -220 879 -54 273 -141 807 -141 872 0 27 14 28 150
14z m3750 -14 c0 -65 -87 -599 -141 -872 -64 -318 -198 -855 -219 -879 -19
-20 -523 283 -890 533 -261 178 -625 446 -625 461 0 4 92 87 205 182 175 149
459 399 566 500 l30 28 195 10 c228 11 614 38 714 49 39 5 91 9 118 10 43 1
47 -1 47 -22z m-1183 -63 c-123 -113 -406 -353 -609 -518 l-158 -127 -157 127
c-193 156 -492 410 -610 518 -9 8 195 11 767 11 572 0 776 -3 767 -11z m-624
-861 c381 -307 955 -714 1349 -959 27 -16 48 -32 48 -36 0 -3 -23 -73 -51
-155 -268 -776 -613 -1344 -989 -1622 -152 -113 -370 -201 -500 -201 -130 0
-348 88 -500 201 -376 278 -721 846 -989 1622 -28 82 -51 152 -51 156 0 3 33
26 73 51 123 76 515 338 662 443 194 139 548 407 680 516 61 49 116 90 123 90
7 1 72 -47 145 -106z"/>
<path d="M6215 7666 c-297 -50 -532 -172 -733 -380 -136 -141 -230 -293 -290
-471 -52 -154 -67 -243 -67 -415 0 -111 5 -179 18 -240 57 -270 179 -493 371
-678 182 -175 390 -285 646 -339 117 -25 363 -25 480 0 256 54 464 164 646
339 192 185 314 408 371 678 25 117 25 363 0 480 -57 270 -179 493 -371 678
-181 174 -392 285 -641 337 -107 23 -328 28 -430 11z"/>
</g>
</svg>
